# xmcd CD database file
#
# Track frame offsets:
#	150
#	16328
#	39152
#	55808
#	72075
#	86960
#	109506
#	137984
#	156122
#	177011
#	204424
#	222748
#
# Disc length: 3215 seconds
#
# Revision: 0
# Processed by: cddbd v1.5.1PL0 Copyright (c) Steve Scherf et al.
# Submitted via: CDex 1.51
#
DISCID=a40c8d0c
DTITLE=LULLABY BROTHERS - non-smoking GENTLEMAN going against the laws of gravitation.
DYEAR=2004
DGENRE=Blues
TTITLE0=Kage Boushi
TTITLE1=Raiu ~ Eki Tikaku de Nure Nure
TTITLE2=Nentyaku shitsu no Mousou
TTITLE3=Aki no Theme
TTITLE4=Kakurenbo no Theme
TTITLE5=Demo...
TTITLE6=Gosui no Kimi
TTITLE7=Retrical Swing
TTITLE8=Mayonaka Meiro
TTITLE9=Aa Mawaru, Konya mo
TTITLE10=2 haime no Coffee
TTITLE11=Haisou no Tenshi
EXTD=YEAR: 2004
EXTT0=
EXTT1=
EXTT2=
EXTT3=
EXTT4=
EXTT5=
EXTT6=
EXTT7=
EXTT8=
EXTT9=
EXTT10=
EXTT11=
PLAYORDER=
